# xmcd CD database file
#
# Track frame offsets:
#	150
#	20415
#	43297
#
# Disc length: 717 seconds
#
# Revision: 0
# Processed by: cddbd v1.5PL3 Copyright (c) Steve Scherf et al.
# Submitted via: CDex 1.50Beta7
#
DISCID=2002cb03
DTITLE=FANATIC◇CRISIS - 心に花を 心に棘を
DYEAR=2000
DGENRE=rock_pop
TTITLE0=心に花を 心に棘を
TTITLE1=LOVE and LIES
TTITLE2=PERFECT RUBBER SOLE
EXTD=YEAR: 2000
EXTT0=
EXTT1=
EXTT2=
PLAYORDER=
